<?xml version="1.0" standalone="no"?>
<!DOCTYPE svg PUBLIC "-//W3C//DTD SVG 20010904//EN"
 "http://www.w3.org/TR/2001/REC-SVG-20010904/DTD/svg10.dtd">
<svg version="1.0" xmlns="http://www.w3.org/2000/svg"
 width="1200.000000pt" height="1200.000000pt" viewBox="0 0 1200.000000 1200.000000"
 preserveAspectRatio="xMidYMid meet">
<metadata>
Created by potrace 1.11, written by Peter Selinger 2001-2013
</metadata>
<g transform="translate(0.000000,1200.000000) scale(0.100000,-0.100000)"
fill="#000000" stroke="none">
<path d="M6020 11799 c0 -5 5 -7 10 -4 6 3 10 8 10 11 0 2 -4 4 -10 4 -5 0
-10 -5 -10 -11z"/>
<path d="M6117 11606 c-3 -8 -2 -18 3 -21 13 -8 20 9 11 24 -6 10 -10 9 -14
-3z"/>
<path d="M6140 11560 c0 -5 5 -10 11 -10 5 0 7 5 4 10 -3 6 -8 10 -11 10 -2 0
-4 -4 -4 -10z"/>
<path d="M6150 11079 c0 -5 5 -7 10 -4 6 3 10 8 10 11 0 2 -4 4 -10 4 -5 0
-10 -5 -10 -11z"/>
<path d="M6180 10874 c0 -8 5 -12 10 -9 6 4 8 11 5 16 -9 14 -15 11 -15 -7z"/>
<path d="M6105 10850 c-3 -5 3 -10 15 -10 12 0 18 5 15 10 -3 6 -10 10 -15 10
-5 0 -12 -4 -15 -10z"/>
<path d="M6146 10781 c-4 -5 3 -7 14 -4 23 6 26 13 6 13 -8 0 -17 -4 -20 -9z"/>
<path d="M6010 9686 c0 -2 7 -6 15 -10 8 -3 15 -1 15 4 0 6 -7 10 -15 10 -8 0
-15 -2 -15 -4z"/>
<path d="M6055 9640 c-18 -8 -17 -9 8 -9 16 -1 26 3 22 9 -3 6 -7 10 -8 9 -1
0 -11 -4 -22 -9z"/>
<path d="M6022 9508 c-18 -18 -14 -28 11 -27 12 0 17 3 10 5 -7 3 -9 12 -6 20
6 17 1 18 -15 2z"/>
<path d="M5950 9460 c-12 -8 -10 -10 8 -10 13 0 20 4 17 10 -7 12 -6 12 -25 0z"/>
<path d="M4588 9323 c7 -3 16 -2 19 1 4 3 -2 6 -13 5 -11 0 -14 -3 -6 -6z"/>
<path d="M5910 9180 c0 -5 5 -10 11 -10 5 0 7 5 4 10 -3 6 -8 10 -11 10 -2 0
-4 -4 -4 -10z"/>
<path d="M4970 9065 c0 -8 2 -15 4 -15 2 0 6 7 10 15 3 8 1 15 -4 15 -6 0 -10
-7 -10 -15z"/>
<path d="M5860 9049 c0 -5 5 -7 10 -4 6 3 10 8 10 11 0 2 -4 4 -10 4 -5 0 -10
-5 -10 -11z"/>
<path d="M5270 8959 c0 -5 5 -7 10 -4 6 3 10 8 10 11 0 2 -4 4 -10 4 -5 0 -10
-5 -10 -11z"/>
<path d="M4892 8921 c6 -20 48 -35 48 -16 0 9 -6 12 -16 8 -9 -3 -20 0 -26 8
-8 12 -9 12 -6 0z"/>
<path d="M5070 8869 c0 -5 5 -7 10 -4 6 3 10 8 10 11 0 2 -4 4 -10 4 -5 0 -10
-5 -10 -11z"/>
<path d="M5235 8850 c3 -5 8 -10 11 -10 2 0 4 5 4 10 0 6 -5 10 -11 10 -5 0
-7 -4 -4 -10z"/>
<path d="M5270 8820 c0 -5 5 -10 11 -10 5 0 7 5 4 10 -3 6 -8 10 -11 10 -2 0
-4 -4 -4 -10z"/>
<path d="M5826 8783 c-6 -14 -5 -15 5 -6 7 7 10 15 7 18 -3 3 -9 -2 -12 -12z"/>
<path d="M5256 8745 c4 -8 11 -15 16 -15 6 0 5 6 -2 15 -7 8 -14 15 -16 15 -2
0 -1 -7 2 -15z"/>
<path d="M5920 8719 c0 -5 5 -7 10 -4 6 3 10 8 10 11 0 2 -4 4 -10 4 -5 0 -10
-5 -10 -11z"/>
<path d="M5220 8680 c0 -5 5 -10 11 -10 5 0 7 5 4 10 -3 6 -8 10 -11 10 -2 0
-4 -4 -4 -10z"/>
<path d="M6240 8498 c0 -4 4 -8 9 -8 6 0 12 4 15 8 3 5 -1 9 -9 9 -8 0 -15 -4
-15 -9z"/>
<path d="M5867 8463 c-4 -3 -7 -13 -7 -22 1 -13 3 -13 11 2 11 19 8 33 -4 20z"/>
<path d="M5740 8402 c0 -4 10 -9 22 -9 18 -2 20 0 8 7 -18 12 -30 13 -30 2z"/>
<path d="M6285 8387 c22 -15 55 -28 55 -22 0 4 -60 35 -69 35 -3 0 3 -6 14
-13z"/>
<path d="M6356 8345 c-3 -8 -1 -15 3 -15 5 0 11 7 15 15 3 8 1 15 -3 15 -5 0
-11 -7 -15 -15z"/>
<path d="M6445 8340 c-4 -6 3 -10 14 -10 25 0 27 6 6 13 -8 4 -17 2 -20 -3z"/>
<path d="M6346 8306 c3 -8 12 -12 20 -9 8 3 14 0 14 -6 0 -6 7 -11 15 -11 18
0 20 -17 3 -23 -7 -2 -10 -8 -6 -11 3 -4 15 1 27 13 l20 20 -22 7 c-12 4 -24
10 -27 14 -3 4 -15 10 -27 14 -18 6 -22 4 -17 -8z"/>
<path d="M6416 8312 c-8 -14 -9 -13 26 -18 15 -1 30 2 34 7 3 6 -5 8 -20 5
-13 -2 -27 1 -29 7 -2 8 -5 8 -11 -1z"/>
<path d="M5640 8299 c0 -5 5 -7 10 -4 6 3 10 8 10 11 0 2 -4 4 -10 4 -5 0 -10
-5 -10 -11z"/>
<path d="M5860 8301 c0 -14 26 -20 41 -9 11 8 10 9 -3 4 -10 -3 -18 -1 -18 4
0 6 -4 10 -10 10 -5 0 -10 -4 -10 -9z"/>
<path d="M5678 8293 c-10 -2 -18 -9 -18 -14 0 -13 17 -11 26 3 5 8 10 6 15 -8
7 -17 8 -17 8 4 1 22 -1 23 -31 15z"/>
<path d="M6450 8269 c0 -5 5 -7 10 -4 6 3 10 8 10 11 0 2 -4 4 -10 4 -5 0 -10
-5 -10 -11z"/>
<path d="M5556 8261 c-14 -5 -16 -10 -8 -15 7 -4 16 -5 21 -1 5 3 12 1 15 -4
4 -5 2 -12 -4 -16 -14 -9 -13 -35 2 -35 6 0 9 3 5 6 -3 3 6 17 21 31 17 16 21
23 10 19 -11 -3 -15 -1 -12 7 5 14 -22 18 -50 8z"/>
<path d="M6365 8260 c3 -5 8 -10 11 -10 2 0 4 5 4 10 0 6 -5 10 -11 10 -5 0
-7 -4 -4 -10z"/>
<path d="M6438 8231 c4 -9 7 -11 9 -4 3 7 11 9 19 6 8 -3 14 0 14 6 0 6 -11
10 -24 9 -17 -2 -22 -7 -18 -17z"/>
<path d="M6495 8240 c3 -5 11 -10 16 -10 6 0 7 5 4 10 -3 6 -11 10 -16 10 -6
0 -7 -4 -4 -10z"/>
<path d="M6548 8243 c6 -2 18 -2 25 0 6 3 1 5 -13 5 -14 0 -19 -2 -12 -5z"/>
<path d="M5510 8226 c0 -2 7 -7 16 -10 8 -3 12 -2 9 4 -6 10 -25 14 -25 6z"/>
<path d="M6402 8221 c-11 -7 -11 -9 2 -14 10 -4 16 -1 16 8 0 17 -1 17 -18 6z"/>
<path d="M6550 8209 c0 -8 -14 -10 -42 -6 -29 4 -37 3 -23 -3 33 -14 75 -12
75 5 0 8 -2 15 -5 15 -3 0 -5 -5 -5 -11z"/>
<path d="M5533 8183 c-15 -5 -17 -23 -4 -23 5 0 11 7 15 15 3 8 4 15 3 14 -1
0 -8 -3 -14 -6z"/>
<path d="M5998 8163 c7 -3 16 -2 19 1 4 3 -2 6 -13 5 -11 0 -14 -3 -6 -6z"/>
<path d="M3257 8153 c-4 -3 -7 -13 -7 -22 1 -13 3 -13 11 2 11 19 8 33 -4 20z"/>
<path d="M3521 8144 c0 -11 3 -14 6 -6 3 7 2 16 -1 19 -3 4 -6 -2 -5 -13z"/>
<path d="M5546 8151 c-4 -7 -5 -15 -2 -18 9 -9 19 4 14 18 -4 11 -6 11 -12 0z"/>
<path d="M5692 8115 c-4 -71 -6 -80 -16 -87 -6 -4 -7 -10 -3 -14 16 -16 30 17
42 93 2 12 -2 27 -9 32 -9 8 -13 1 -14 -24z"/>
<path d="M6620 8140 c0 -6 7 -10 15 -10 8 0 15 2 15 4 0 2 -7 6 -15 10 -8 3
-15 1 -15 -4z"/>
<path d="M3438 8108 c3 -14 1 -19 -6 -14 -8 5 -10 2 -6 -8 8 -21 21 -12 26 19
4 16 1 25 -7 25 -9 0 -11 -8 -7 -22z"/>
<path d="M3501 8118 c-1 -9 -7 -19 -13 -21 -10 -4 -10 -6 0 -6 7 -1 10 -5 7
-11 -3 -5 -2 -10 4 -10 15 0 19 13 10 40 -4 15 -7 18 -8 8z"/>
<path d="M5546 8095 c9 -38 13 -43 24 -25 13 20 13 50 0 50 -5 0 -10 -6 -10
-12 0 -9 -4 -8 -10 2 -8 11 -9 7 -4 -15z"/>
<path d="M3236 8095 c-3 -9 -6 -22 -5 -28 0 -7 5 -1 10 12 5 13 8 26 5 28 -2
2 -6 -3 -10 -12z"/>
<path d="M5600 8081 c0 -5 5 -13 10 -16 6 -3 10 -2 10 4 0 5 -4 13 -10 16 -5
3 -10 2 -10 -4z"/>
<path d="M5870 8059 c0 -5 5 -7 10 -4 6 3 10 8 10 11 0 2 -4 4 -10 4 -5 0 -10
-5 -10 -11z"/>
<path d="M3290 8020 c-8 -5 -11 -10 -6 -10 6 0 1 -6 -9 -14 -17 -12 -17 -15
-2 -36 13 -19 14 -27 4 -38 -11 -13 -9 -13 11 -1 12 8 20 19 18 26 -3 6 -2 14
1 17 8 8 12 66 4 66 -3 0 -13 -5 -21 -10z"/>
<path d="M5875 8010 c-4 -6 -12 -8 -18 -4 -7 3 -5 0 3 -8 9 -7 15 -25 14 -40
-2 -16 3 -29 12 -32 12 -5 14 -1 8 17 -4 12 -7 34 -6 50 2 28 -2 34 -13 17z"/>
<path d="M3328 7997 c-3 -7 -2 -22 1 -34 l6 -21 17 22 c15 21 15 23 -2 34 -14
8 -19 8 -22 -1z"/>
<path d="M3236 7971 c-4 -5 -2 -12 3 -15 5 -4 12 -2 15 3 4 5 2 12 -3 15 -5 4
-12 2 -15 -3z"/>
<path d="M5654 7972 c4 -7 3 -12 -3 -12 -6 0 -18 -14 -26 -31 -15 -29 -15 -31
1 -27 23 4 49 64 32 74 -7 4 -8 3 -4 -4z"/>
<path d="M5830 7975 c0 -5 5 -17 10 -25 5 -8 10 -10 10 -5 0 6 -5 17 -10 25
-5 8 -10 11 -10 5z"/>
<path d="M3240 7920 c0 -5 5 -10 10 -10 6 0 10 5 10 10 0 6 -4 10 -10 10 -5 0
-10 -4 -10 -10z"/>
<path d="M5860 7910 c0 -5 5 -10 10 -10 6 0 10 5 10 10 0 6 -4 10 -10 10 -5 0
-10 -4 -10 -10z"/>
<path d="M5620 7881 c0 -7 -4 -10 -9 -6 -6 3 -15 -5 -22 -17 -7 -13 -19 -30
-28 -38 -9 -8 -18 -22 -20 -30 -15 -55 -27 -80 -38 -75 -14 5 -29 -38 -18 -54
11 -19 23 -12 18 12 -3 15 -2 18 5 9 7 -10 13 -5 23 20 14 32 15 39 18 66 0 7
6 10 11 7 6 -3 13 2 17 12 4 10 18 35 31 56 14 20 22 40 18 44 -3 3 -6 1 -6
-6z"/>
<path d="M5840 7868 c0 -17 1 -17 20 -1 11 10 20 18 20 18 0 0 -9 1 -20 1 -12
0 -20 -7 -20 -18z"/>
<path d="M3510 7870 c20 -13 33 -13 25 0 -3 6 -14 10 -23 10 -15 0 -15 -2 -2
-10z"/>
<path d="M5867 7811 c-3 -13 1 -21 15 -24 15 -4 19 -1 16 15 -4 28 -24 34 -31
9z"/>
<path d="M5913 7774 c-3 -8 -1 -20 6 -27 8 -8 11 -4 11 16 0 30 -7 35 -17 11z"/>
<path d="M5851 7754 c0 -11 3 -14 6 -6 3 7 2 16 -1 19 -3 4 -6 -2 -5 -13z"/>
<path d="M5880 7760 c0 -5 5 -10 11 -10 5 0 7 5 4 10 -3 6 -8 10 -11 10 -2 0
-4 -4 -4 -10z"/>
<path d="M5404 7735 c-4 -8 -13 -15 -22 -15 -8 0 -13 -3 -9 -6 8 -8 67 6 67
16 0 15 -31 20 -36 5z"/>
<path d="M6831 7724 c0 -11 3 -14 6 -6 3 7 2 16 -1 19 -3 4 -6 -2 -5 -13z"/>
<path d="M5397 7702 c-9 -2 -14 -8 -11 -14 4 -6 1 -14 -6 -18 -10 -6 -9 -13 4
-31 l16 -23 1 24 c1 17 3 19 6 8 6 -26 23 -22 22 5 -1 35 -12 53 -32 49z"/>
<path d="M5430 7695 c0 -9 6 -12 15 -9 8 4 12 10 9 15 -8 14 -24 10 -24 -6z"/>
<path d="M5872 7701 c2 -7 7 -12 11 -12 12 1 9 15 -3 20 -7 2 -11 -2 -8 -8z"/>
<path d="M6719 7693 c-13 -16 -12 -17 4 -4 9 7 17 15 17 17 0 8 -8 3 -21 -13z"/>
<path d="M6882 7691 c-11 -7 -11 -9 2 -14 10 -4 16 -1 16 8 0 17 -1 17 -18 6z"/>
<path d="M6325 7660 c-3 -5 -1 -10 4 -10 6 0 11 5 11 10 0 6 -2 10 -4 10 -3 0
-8 -4 -11 -10z"/>
<path d="M6841 7663 c0 -4 4 -17 9 -28 8 -19 9 -19 9 2 1 12 -3 25 -9 28 -5 3
-10 3 -9 -2z"/>
<path d="M3298 7648 c-9 -7 -19 -24 -23 -38 -6 -22 -6 -23 6 -8 12 15 34 23
74 28 10 1 -24 30 -35 30 -3 0 -13 -6 -22 -12z"/>
<path d="M5438 7629 c-10 -17 -22 -27 -28 -24 -12 8 -24 -20 -15 -35 4 -6 14
-2 25 12 l19 23 1 -22 c0 -13 4 -23 9 -23 5 0 16 -3 25 -6 11 -4 16 -1 16 10
0 14 3 14 22 -4 28 -26 44 -25 58 1 9 17 8 25 -6 40 -16 18 -20 19 -30 5 -9
-14 -12 -12 -22 9 -14 31 -43 34 -35 4 4 -16 2 -20 -8 -17 -8 3 -13 17 -12 32
1 14 1 26 0 26 -1 0 -10 -14 -19 -31z"/>
<path d="M5910 7649 c0 -5 5 -7 10 -4 6 3 10 8 10 11 0 2 -4 4 -10 4 -5 0 -10
-5 -10 -11z"/>
<path d="M6679 7643 c-13 -16 -12 -17 4 -4 9 7 17 15 17 17 0 8 -8 3 -21 -13z"/>
<path d="M6716 7644 c-4 -10 2 -13 19 -12 32 3 41 26 10 26 -13 0 -26 -7 -29
-14z"/>
<path d="M5875 7639 c-4 -6 -5 -13 -2 -16 7 -7 27 6 27 18 0 12 -17 12 -25 -2z"/>
<path d="M5840 7604 c0 -30 2 -34 14 -25 8 7 12 21 9 32 -9 35 -23 31 -23 -7z"/>
<path d="M3251 7574 c0 -11 3 -14 6 -6 3 7 2 16 -1 19 -3 4 -6 -2 -5 -13z"/>
<path d="M6710 7568 c0 -5 7 -11 15 -14 10 -4 13 -14 9 -30 -7 -29 11 -54 38
-54 10 0 17 -4 14 -9 -3 -5 -14 -8 -24 -6 -9 1 -12 0 -5 -2 13 -5 14 -43 1
-43 -4 0 -8 -7 -8 -15 0 -8 8 -15 19 -15 10 0 21 -9 24 -20 3 -11 1 -20 -4
-20 -4 0 -6 -7 -3 -15 4 -8 11 -15 16 -15 6 0 8 6 5 14 -3 7 -1 18 5 24 5 5
11 27 13 47 3 28 1 35 -8 26 -6 -6 -17 -11 -24 -11 -16 0 -17 26 -1 36 8 5 9
2 4 -11 -5 -15 -4 -16 9 -5 20 16 19 39 -1 47 -9 3 -14 13 -11 24 3 11 1 16
-5 13 -5 -3 -9 0 -7 7 4 30 -2 39 -23 39 -19 0 -20 2 -8 10 11 8 9 9 -12 8
-16 -1 -28 -6 -28 -10z"/>
<path d="M6563 7551 c-1 -13 3 -18 11 -15 21 8 28 -24 8 -35 -9 -6 -12 -11 -5
-11 6 0 19 10 27 21 11 17 12 25 3 40 -15 25 -42 24 -44 0z"/>
<path d="M6982 7528 c1 -21 6 -38 10 -38 11 0 10 42 -2 60 -8 11 -10 5 -8 -22z"/>
<path d="M7055 7540 c3 -5 8 -10 11 -10 2 0 4 5 4 10 0 6 -5 10 -11 10 -5 0
-7 -4 -4 -10z"/>
<path d="M5851 7524 c0 -11 3 -14 6 -6 3 7 2 16 -1 19 -3 4 -6 -2 -5 -13z"/>
<path d="M5835 7490 c-3 -5 -3 -10 2 -11 4 0 -1 -4 -12 -9 -19 -8 -19 -9 3 -9
16 -1 22 5 22 19 0 22 -5 26 -15 10z"/>
<path d="M5789 7445 c-1 -3 -2 -10 -3 -15 0 -6 -7 -15 -15 -19 -14 -9 -5 -18
19 -17 17 1 28 56 11 56 -6 0 -12 -2 -12 -5z"/>
<path d="M6582 7420 c0 -14 2 -19 5 -12 2 6 2 18 0 25 -3 6 -5 1 -5 -13z"/>
<path d="M6976 7409 c-14 -17 -15 -21 -3 -16 12 4 15 0 13 -21 -2 -15 2 -30 8
-34 8 -6 7 -11 -3 -17 -10 -7 -11 -16 -5 -37 14 -43 9 -197 -6 -202 -7 -3 -8
-7 -2 -11 6 -4 7 -22 2 -46 -4 -22 -8 -34 -9 -26 0 7 -7 11 -15 8 -7 -3 -18
-2 -22 1 -5 4 2 -3 15 -15 14 -12 28 -20 33 -17 4 3 8 -2 8 -11 0 -9 -4 -13
-10 -10 -5 3 -10 1 -10 -4 0 -6 5 -11 10 -11 6 0 10 -9 10 -19 0 -11 4 -22 9
-25 5 -3 7 -15 4 -26 -7 -26 4 -70 18 -70 6 0 7 5 3 12 -5 7 -2 9 9 5 14 -5
13 0 -3 39 -26 61 -40 150 -30 201 4 24 7 76 6 118 -1 41 2 75 5 75 8 0 2 131
-8 158 l-8 22 -19 -21z"/>
<path d="M6605 7401 c3 -5 0 -11 -7 -13 -8 -3 -6 -7 4 -11 9 -3 19 0 22 8 2 7
-2 16 -10 19 -8 3 -13 2 -9 -3z"/>
<path d="M7608 7363 c-10 -2 -18 -9 -18 -14 0 -10 57 -5 68 6 4 4 -4 4 -17 0
-16 -5 -21 -4 -17 4 4 6 6 10 4 10 -2 -1 -11 -3 -20 -6z"/>
<path d="M6760 7349 c0 -5 5 -7 10 -4 6 3 10 8 10 11 0 2 -4 4 -10 4 -5 0 -10
-5 -10 -11z"/>
<path d="M7170 7354 c0 -14 30 -33 45 -28 14 6 14 8 -2 20 -18 14 -43 19 -43
8z"/>
<path d="M6620 7334 c0 -8 5 -12 10 -9 6 3 10 10 10 16 0 5 -4 9 -10 9 -5 0
-10 -7 -10 -16z"/>
<path d="M7700 7319 c0 -6 -7 -9 -15 -5 -9 3 -19 -3 -25 -14 -11 -20 -9 -21
23 -24 6 -1 15 -5 20 -11 4 -6 11 -4 17 5 14 22 12 47 -5 54 -8 3 -15 1 -15
-5z"/>
<path d="M7743 7286 c-10 -11 -9 -15 3 -20 27 -10 37 -7 25 7 -6 8 -8 17 -4
20 3 4 2 7 -3 7 -5 -1 -14 -7 -21 -14z"/>
<path d="M6767 7271 c-3 -13 -1 -18 9 -14 7 2 10 11 7 19 -7 19 -10 18 -16 -5z"/>
<path d="M6600 7252 c6 -13 14 -21 18 -18 3 4 -2 14 -12 24 -18 16 -18 16 -6
-6z"/>
<path d="M7797 7256 c-3 -7 -1 -18 5 -24 6 -6 7 -16 3 -22 -6 -9 -9 -9 -15 0
-5 9 -9 9 -14 1 -10 -16 36 -32 52 -18 10 8 13 7 10 -4 -1 -7 2 -15 7 -17 14
-4 19 48 6 61 -8 8 -11 6 -11 -6 0 -9 -4 -17 -10 -17 -5 0 -10 11 -10 24 0 28
-15 43 -23 22z"/>
<path d="M6230 7241 c0 -12 5 -21 10 -21 6 0 10 6 10 14 0 8 -4 18 -10 21 -5
3 -10 -3 -10 -14z"/>
<path d="M6790 7232 c0 -23 18 -39 30 -26 4 5 -1 18 -11 28 -19 19 -19 19 -19
-2z"/>
<path d="M7310 7235 c-11 -13 -10 -14 4 -9 9 3 16 10 16 15 0 13 -6 11 -20 -6z"/>
<path d="M7340 7229 c0 -5 5 -7 10 -4 6 3 10 8 10 11 0 2 -4 4 -10 4 -5 0 -10
-5 -10 -11z"/>
<path d="M6744 7214 c-9 -4 -9 -13 -1 -34 15 -40 24 -38 19 5 -2 19 -5 35 -6
34 0 0 -6 -3 -12 -5z"/>
<path d="M6610 7200 c-8 -5 -11 -12 -8 -16 4 -3 14 1 23 10 18 17 9 21 -15 6z"/>
<path d="M7390 7201 c0 -5 -8 -11 -17 -14 -10 -2 -3 -4 14 -4 27 0 31 3 22 14
-13 15 -19 17 -19 4z"/>
<path d="M6475 7180 c3 -5 14 -10 23 -10 15 0 15 2 2 10 -20 13 -33 13 -25 0z"/>
<path d="M6633 7183 c4 -6 2 -13 -5 -15 -7 -3 -8 -7 -2 -11 5 -3 16 -2 22 2
10 6 9 11 -4 22 -10 8 -15 9 -11 2z"/>
<path d="M6773 7158 c0 -7 -4 -21 -8 -31 -10 -25 22 -11 36 15 8 15 8 19 0 14
-6 -4 -11 -2 -11 3 0 15 -17 14 -17 -1z"/>
<path d="M7416 7155 c-3 -8 0 -14 7 -12 7 1 11 -4 10 -10 -2 -7 0 -12 5 -12
20 3 32 -2 32 -14 0 -8 9 -22 20 -32 18 -17 20 -17 20 -1 0 20 -45 68 -54 58
-4 -3 -9 4 -13 16 -6 25 -18 29 -27 7z"/>
<path d="M7870 7158 c0 -9 -6 -19 -12 -21 -8 -3 -7 -6 4 -6 22 -1 29 11 17 29
-7 13 -9 12 -9 -2z"/>
<path d="M7915 7160 c3 -5 8 -10 11 -10 2 0 4 5 4 10 0 6 -5 10 -11 10 -5 0
-7 -4 -4 -10z"/>
<path d="M6490 7149 c0 -5 5 -7 10 -4 6 3 10 8 10 11 0 2 -4 4 -10 4 -5 0 -10
-5 -10 -11z"/>
<path d="M7917 7119 c-16 -16 -24 -29 -19 -29 5 0 15 7 22 15 18 21 28 19 26
-7 -1 -13 6 -30 16 -38 11 -9 21 -25 22 -35 2 -12 10 -19 19 -17 10 2 15 -3
13 -10 -1 -7 -1 -10 1 -5 3 4 14 7 26 7 19 1 20 2 6 13 -8 7 -18 20 -22 30 -4
11 -12 15 -18 11 -8 -4 -9 -3 -5 4 9 15 -22 62 -41 62 -8 0 -12 4 -8 9 14 23
-13 16 -38 -10z"/>
<path d="M6793 7113 c-3 -10 -9 -22 -11 -28 -3 -5 1 -4 10 3 13 10 17 10 21 0
3 -7 6 -3 6 9 1 28 -17 40 -26 16z"/>
<path d="M6235 7110 c-3 -5 -1 -10 4 -10 6 0 11 5 11 10 0 6 -2 10 -4 10 -3 0
-8 -4 -11 -10z"/>
<path d="M7919 7067 c-4 -15 -4 -26 -1 -23 2 3 11 -2 19 -10 8 -8 20 -11 26
-7 7 4 3 10 -11 16 -11 5 -22 19 -24 31 -3 18 -4 17 -9 -7z"/>
<path d="M6833 7037 c-1 -43 11 -67 31 -67 6 0 12 12 12 26 2 18 -2 24 -13 20
-11 -4 -13 -1 -8 14 4 12 2 20 -5 20 -6 0 -9 4 -5 9 3 5 1 12 -3 15 -5 3 -9
-14 -9 -37z"/>
<path d="M6805 7030 c4 -6 11 -8 16 -5 14 9 11 15 -7 15 -8 0 -12 -5 -9 -10z"/>
<path d="M5722 6999 c-7 -11 -8 -19 -2 -19 5 0 10 5 10 12 0 6 3 8 6 5 4 -4 2
-12 -3 -19 -21 -27 -25 -58 -8 -74 9 -9 19 -14 22 -11 12 13 13 89 0 107 -13
18 -13 18 -25 -1z"/>
<path d="M7526 7011 c-4 -6 -3 -11 3 -11 6 0 8 -8 5 -17 -5 -16 -4 -16 6 0 8
13 9 22 2 29 -6 6 -12 6 -16 -1z"/>
<path d="M5845 6999 c-11 -17 1 -21 15 -4 8 9 8 15 2 15 -6 0 -14 -5 -17 -11z"/>
<path d="M7784 6978 c2 -9 -2 -22 -9 -28 -13 -11 -12 -17 6 -42 12 -16 19 -32
16 -35 -3 -3 0 -11 6 -18 10 -11 15 -10 30 2 23 21 22 39 -5 57 -18 13 -19 17
-8 31 8 9 9 15 2 13 -6 -2 -18 6 -27 17 -13 15 -15 16 -11 3z"/>
<path d="M8063 6975 c0 -8 9 -17 19 -21 16 -5 22 -16 20 -35 -1 -4 8 -15 18
-24 29 -26 25 -9 -11 47 -32 49 -46 59 -46 33z"/>
<path d="M7590 6973 c0 -5 13 -17 28 -27 l27 -19 -24 26 c-26 28 -31 32 -31
20z"/>
<path d="M7560 6962 c0 -7 4 -12 10 -12 5 0 7 -8 3 -17 -5 -15 -3 -16 8 -5 11
10 10 15 -4 29 -11 11 -17 13 -17 5z"/>
<path d="M8073 6910 c1 -16 5 -30 9 -30 3 0 9 -8 11 -17 3 -12 5 -10 6 7 1 33
-9 70 -20 70 -4 0 -7 -13 -6 -30z"/>
<path d="M6878 6909 c-19 -11 -13 -39 8 -39 8 0 11 6 7 17 -4 11 -3 14 5 9 8
-5 10 -2 6 8 -3 9 -7 16 -8 16 0 0 -9 -5 -18 -11z"/>
<path d="M6916 6894 c-9 -22 -8 -24 10 -24 8 0 12 5 8 11 -3 6 0 15 7 20 11 7
11 9 -2 9 -9 0 -20 -7 -23 -16z"/>
<path d="M8031 6901 c-7 -5 -11 -16 -9 -25 3 -15 5 -15 20 3 18 21 11 35 -11
22z"/>
<path d="M6354 6872 c4 -7 2 -12 -5 -12 -7 0 -9 -3 -6 -7 4 -3 1 -13 -6 -21
-10 -13 -9 -14 11 -3 24 13 29 35 10 47 -7 4 -8 3 -4 -4z"/>
<path d="M6880 6840 c-13 -8 -13 -10 -1 -10 8 0 11 -3 8 -7 -10 -9 31 -35 43
-28 6 3 10 -1 10 -9 0 -9 -8 -16 -17 -17 -13 0 -11 -3 7 -11 24 -10 24 -10 5
-19 -18 -9 -18 -9 3 -5 28 5 40 -17 22 -39 -7 -9 -11 -18 -8 -21 3 -2 12 6 20
18 21 33 38 87 29 93 -12 7 -21 -5 -21 -27 0 -22 -16 -24 -24 -3 -3 8 -1 15 4
15 6 0 5 9 -2 20 -7 11 -18 20 -25 20 -7 0 -13 5 -13 10 0 9 14 14 33 11 4 0
7 4 7 9 0 13 -6 13 -32 -1 -14 -8 -23 -8 -27 -1 -4 7 -12 8 -21 2z"/>
<path d="M8100 6825 c-7 -14 -17 -25 -22 -25 -5 0 -6 5 -3 10 3 6 2 10 -4 10
-5 0 -16 3 -25 6 -9 3 -16 1 -16 -5 0 -6 7 -11 16 -11 8 0 12 -4 9 -10 -3 -5
1 -10 10 -10 9 0 13 -5 10 -10 -7 -11 30 -8 41 2 3 4 11 5 17 4 7 -2 9 -1 5 1
-4 2 -4 11 -1 19 3 8 0 14 -6 14 -6 0 -8 7 -5 15 10 25 -12 17 -26 -10z m20
-20 c0 -8 -4 -15 -10 -15 -5 0 -10 7 -10 15 0 8 5 15 10 15 6 0 10 -7 10 -15z"/>
<path d="M7543 6811 c-14 -22 1 -51 27 -51 25 0 33 15 21 39 -15 27 -36 32
-48 12z"/>
<path d="M7630 6821 c0 -18 21 -64 26 -58 9 8 -6 67 -17 67 -5 0 -9 -4 -9 -9z"/>
<path d="M3233 6795 c-3 -9 -3 -18 -1 -21 3 -3 8 4 11 16 6 23 -1 27 -10 5z"/>
<path d="M6610 6792 c0 -7 -7 -9 -17 -5 -16 6 -16 5 -4 -11 13 -16 15 -16 24
-1 5 9 6 19 3 22 -3 4 -6 1 -6 -5z"/>
<path d="M7026 6779 c-18 -26 -21 -49 -6 -49 6 0 10 9 10 20 0 13 5 18 15 14
17 -7 19 4 6 25 -7 10 -12 8 -25 -10z"/>
<path d="M8175 6743 c-4 -13 -11 -23 -16 -23 -5 0 -6 -6 -3 -13 3 -8 -3 -20
-12 -28 -12 -9 -15 -10 -10 -1 4 7 2 12 -6 12 -10 0 -13 -10 -10 -34 3 -24 9
-33 20 -32 10 1 16 -6 16 -16 -2 -21 12 -24 19 -5 5 12 10 -13 11 -63 1 -22 5
-25 39 -25 36 -1 62 -19 51 -37 -8 -13 -25 -9 -22 5 5 21 -17 17 -25 -5 -5
-15 -4 -19 7 -15 18 7 36 -12 36 -39 0 -13 5 -26 11 -30 8 -5 6 -10 -5 -16
-13 -7 -14 -13 -6 -23 7 -8 11 -29 9 -47 -3 -53 0 -68 15 -68 8 0 16 -7 20
-15 5 -14 -6 -20 -28 -16 -5 1 -4 -5 3 -13 14 -16 -1 -56 -20 -56 -6 0 -7 -6
-2 -12 4 -7 6 -21 5 -30 -4 -22 16 -24 25 -2 5 13 7 13 14 2 7 -10 9 -9 9 4 0
9 -8 18 -17 20 -16 3 -15 5 4 16 19 10 22 10 22 -5 0 -10 2 -47 6 -83 3 -36 6
-74 6 -85 0 -20 21 -59 46 -83 18 -19 16 -28 -6 -28 -12 0 -17 6 -14 16 3 10
-1 9 -11 -4 -21 -26 -20 -33 4 -39 20 -5 29 -37 10 -37 -11 0 16 -73 28 -78
25 -9 36 -24 37 -48 0 -16 9 -32 22 -41 21 -14 22 -13 19 9 -10 81 -20 128
-28 128 -5 0 -6 5 -2 12 5 7 2 9 -8 5 -14 -5 -15 -1 -6 29 10 36 3 74 -12 74
-6 0 -7 21 -5 48 4 34 3 41 -4 27 -11 -23 -12 -22 -16 28 -2 20 0 35 5 32 4
-3 6 4 3 15 -3 11 -13 20 -22 20 -14 1 -14 2 1 10 9 6 15 18 13 28 -40 170
-61 242 -71 238 -8 -3 -11 5 -7 25 2 16 0 29 -6 29 -6 0 -8 7 -5 15 4 8 2 15
-2 15 -5 0 -10 15 -10 33 -1 17 -9 49 -18 70 -14 32 -19 37 -31 27 -12 -10
-15 -9 -15 8 0 15 -5 20 -15 16 -8 -4 -15 -1 -15 5 0 14 35 32 46 23 5 -4 2 1
-5 10 -7 10 -18 15 -23 12 -5 -3 -12 3 -15 15 -5 21 -33 30 -33 10 0 -5 -5 -7
-10 -4 -22 14 10 35 36 25 19 -7 24 -6 24 5 0 8 -9 15 -20 15 -19 0 -28 15
-12 22 4 2 5 17 1 33 -6 28 -7 29 -14 8z m135 -377 c0 -3 -4 -8 -10 -11 -5 -3
-10 -1 -10 4 0 6 5 11 10 11 6 0 10 -2 10 -4z m34 -162 c3 -8 2 -12 -4 -9 -6
3 -10 10 -10 16 0 14 7 11 14 -7z m66 -284 c0 -5 -4 -10 -10 -10 -5 0 -10 5
-10 10 0 6 5 10 10 10 6 0 10 -4 10 -10z"/>
<path d="M7052 6733 c22 -26 31 -44 21 -42 -20 3 -34 -2 -28 -11 3 -5 2 -10
-4 -10 -5 0 -12 6 -14 13 -4 9 -8 8 -16 -3 -8 -12 -6 -16 9 -18 14 -2 20 -11
20 -28 0 -19 -5 -24 -25 -24 -14 0 -25 -5 -25 -11 0 -6 7 -8 16 -5 9 3 24 6
33 6 14 0 17 6 14 24 -3 13 0 27 7 31 7 4 10 0 8 -11 -2 -14 4 -20 25 -22 15
-2 27 1 27 7 0 24 -55 121 -69 121 -12 0 -12 -2 1 -17z"/>
<path d="M7650 6734 c0 -8 5 -12 10 -9 6 3 10 10 10 16 0 5 -4 9 -10 9 -5 0
-10 -7 -10 -16z"/>
<path d="M8133 6743 c4 -6 -2 -13 -13 -16 -11 -3 -20 -11 -20 -18 0 -10 3 -10
12 -1 9 9 14 7 23 -5 11 -15 13 -13 13 10 0 15 -5 30 -11 34 -5 3 -7 1 -4 -4z"/>
<path d="M5729 6714 l-24 -26 32 19 c18 10 33 21 33 26 0 14 -17 7 -41 -19z"/>
<path d="M5775 6670 c3 -5 8 -10 11 -10 2 0 4 5 4 10 0 6 -5 10 -11 10 -5 0
-7 -4 -4 -10z"/>
<path d="M6751 6649 c-1 -14 8 -35 19 -47 23 -24 35 -29 24 -9 -6 10 -4 10 7
0 21 -21 29 -15 17 12 -6 14 -18 25 -25 25 -8 0 -11 -4 -8 -10 3 -6 -1 -7 -9
-4 -9 3 -14 9 -12 13 2 3 0 15 -5 26 -7 18 -8 17 -8 -6z"/>
<path d="M6185 6651 c-3 -6 -3 -11 2 -11 4 0 1 -4 -7 -10 -12 -8 -12 -10 4
-16 14 -5 15 -9 4 -15 -10 -7 -9 -9 4 -9 14 0 16 6 11 33 -7 38 -9 42 -18 28z"/>
<path d="M5789 6648 c-7 -24 -5 -44 4 -50 9 -6 9 -8 0 -8 -7 0 -13 -5 -13 -11
0 -5 5 -7 10 -4 6 3 10 1 10 -4 0 -6 -4 -11 -10 -11 -11 0 -8 -189 3 -207 5
-8 3 -13 -3 -13 -7 0 -10 -12 -9 -28 2 -15 0 -33 -5 -40 -4 -7 -2 -19 4 -27 9
-11 9 -15 1 -15 -6 0 -11 -12 -11 -27 0 -22 2 -25 10 -13 8 13 10 12 10 -2 0
-10 -7 -18 -16 -18 -8 0 -12 -5 -9 -11 4 -6 13 -8 21 -5 8 3 14 1 14 -4 0 -6
-9 -10 -20 -10 -28 0 -25 -20 3 -21 16 -1 18 -2 5 -6 -10 -2 -18 -13 -18 -24
0 -11 7 -19 18 -19 24 -1 55 -26 47 -39 -3 -7 0 -8 9 -5 11 4 16 0 16 -11 0
-9 -4 -13 -10 -10 -5 3 -10 1 -10 -5 0 -7 8 -9 19 -5 16 5 18 2 14 -14 -3 -11
-11 -17 -18 -15 -7 3 -15 -2 -19 -11 -3 -10 -11 -13 -18 -9 -19 12 -58 14 -58
3 0 -5 6 -9 13 -9 8 0 7 -4 -3 -10 -11 -7 -12 -10 -1 -10 9 0 12 -12 9 -45 -2
-25 -2 -45 -1 -45 1 0 18 9 37 19 34 19 34 19 28 -1 -3 -14 2 -26 13 -34 22
-17 35 -18 35 -4 0 6 -9 10 -20 10 -19 0 -19 1 -2 18 9 11 20 17 23 15 10 -4
19 24 19 58 0 20 -4 28 -12 23 -7 -5 -8 -3 -3 6 9 15 -15 121 -26 114 -5 -3
-5 6 0 19 6 14 7 42 5 63 -3 22 -5 74 -4 117 1 50 -3 84 -11 93 -9 11 -9 18
-2 22 6 4 9 23 7 42 -3 19 -5 43 -5 53 0 9 -5 15 -11 11 -6 -4 -6 2 1 15 10
17 9 22 -4 27 -9 4 -15 19 -15 39 0 18 -5 35 -11 37 -6 2 -11 16 -11 31 0 15
-4 27 -9 27 -5 0 -9 -1 -10 -2z m41 -173 c0 -1 -9 -5 -20 -8 -12 -3 -20 0 -20
8 0 8 8 11 20 8 11 -3 20 -7 20 -8z m20 -75 c0 -5 -5 -10 -11 -10 -5 0 -7 5
-4 10 3 6 8 10 11 10 2 0 4 -4 4 -10z m-1 -183 c-2 -1 -12 -9 -21 -16 -15 -12
-18 -11 -18 3 0 10 8 16 22 16 12 0 19 -1 17 -3z m1 -21 c0 -3 -4 -8 -10 -11
-5 -3 -10 -1 -10 4 0 6 5 11 10 11 6 0 10 -2 10 -4z m-20 -57 c0 -5 -4 -9 -10
-9 -5 0 -10 7 -10 16 0 8 5 12 10 9 6 -3 10 -10 10 -16z m22 -224 c-5 -30 -7
-30 -31 -6 -18 18 -18 20 -3 24 35 9 39 7 34 -18z"/>
<path d="M6140 6636 c0 -8 5 -18 10 -21 6 -3 10 1 10 9 0 8 -4 18 -10 21 -5 3
-10 -1 -10 -9z"/>
<path d="M6975 6640 c-4 -6 5 -10 19 -10 14 0 26 5 26 10 0 6 -9 10 -19 10
-11 0 -23 -4 -26 -10z"/>
<path d="M5820 6620 c0 -5 5 -10 11 -10 5 0 7 5 4 10 -3 6 -8 10 -11 10 -2 0
-4 -4 -4 -10z"/>
<path d="M6967 6613 c-4 -3 -7 -11 -7 -17 0 -6 5 -5 12 2 6 6 9 14 7 17 -3 3
-9 2 -12 -2z"/>
<path d="M7088 6603 c7 -3 16 -2 19 1 4 3 -2 6 -13 5 -11 0 -14 -3 -6 -6z"/>
<path d="M6160 6590 c0 -5 -7 -7 -16 -3 -10 4 -25 -4 -40 -21 -14 -14 -29 -26
-34 -26 -6 0 -10 -4 -10 -10 0 -5 7 -7 15 -4 8 4 15 2 15 -3 0 -5 -23 -10 -51
-11 -29 0 -56 -5 -62 -11 -6 -6 1 -8 22 -5 18 3 31 1 31 -5 0 -6 -9 -11 -20
-11 -11 0 -20 -4 -20 -9 0 -25 14 -41 36 -41 25 0 26 -10 9 -67 -4 -14 32 -63
46 -63 6 0 8 4 5 9 -3 5 1 11 9 15 8 3 15 10 15 16 0 6 -5 8 -12 4 -7 -4 -8
-3 -4 4 12 19 -3 35 -20 21 -16 -13 -16 -13 -19 19 -2 15 2 21 11 18 16 -6 38
20 31 38 -3 8 1 17 10 20 12 5 13 9 4 20 -10 12 -8 13 8 9 15 -4 21 -1 21 12
0 9 7 23 15 31 14 14 22 64 10 64 -3 0 -5 -4 -5 -10z m-33 -47 c-3 -10 -5 -4
-5 12 0 17 2 24 5 18 2 -7 2 -21 0 -30z m-62 -92 c-8 -14 -45 -14 -45 0 0 6 9
9 20 6 11 -3 20 0 20 6 0 6 3 8 6 4 3 -3 3 -10 -1 -16z"/>
<path d="M7111 6586 c-7 -8 -8 -17 -3 -20 6 -3 12 3 15 14 6 24 4 25 -12 6z"/>
<path d="M6585 6580 c3 -5 8 -10 11 -10 2 0 4 5 4 10 0 6 -5 10 -11 10 -5 0
-7 -4 -4 -10z"/>
<path d="M6734 6569 c-9 -16 2 -22 21 -11 15 8 16 10 1 15 -8 3 -18 2 -22 -4z"/>
<path d="M6906 6565 c-9 -26 -7 -32 5 -12 6 10 9 21 6 23 -2 3 -7 -2 -11 -11z"/>
<path d="M7136 6554 c-3 -9 -13 -14 -21 -11 -8 4 -12 1 -9 -6 7 -19 64 -19 64
0 0 12 -3 13 -14 4 -12 -10 -13 -8 -9 8 6 25 -2 28 -11 5z"/>
<path d="M5850 6540 c0 -11 5 -20 10 -20 6 0 10 9 10 20 0 11 -4 20 -10 20 -5
0 -10 -9 -10 -20z"/>
<path d="M6766 6543 c-11 -11 -6 -23 9 -23 8 0 15 4 15 9 0 13 -16 22 -24 14z"/>
<path d="M6663 6508 c5 -15 0 -18 -26 -19 -18 -1 -24 -3 -14 -6 11 -3 16 -11
13 -19 -3 -8 1 -14 9 -14 8 0 15 6 15 14 0 8 6 16 14 18 12 3 12 6 -1 23 -13
16 -15 17 -10 3z"/>
<path d="M6877 6503 c-4 -3 -7 -11 -7 -17 0 -6 5 -5 12 2 6 6 9 14 7 17 -3 3
-9 2 -12 -2z"/>
<path d="M6833 6480 c-7 -10 -9 -21 -5 -24 4 -2 12 7 19 20 13 29 3 32 -14 4z"/>
<path d="M6910 6485 c-8 -9 -8 -15 -2 -15 12 0 26 19 19 26 -2 2 -10 -2 -17
-11z"/>
<path d="M7165 6492 c-12 -9 -37 -74 -25 -67 4 3 6 -4 3 -15 -6 -22 14 -53 28
-44 16 10 9 -9 -8 -22 -11 -9 -14 -17 -8 -21 6 -5 11 -14 13 -22 2 -11 0 -12
-10 -4 -9 8 -18 5 -33 -10 -11 -11 -14 -17 -7 -13 7 4 12 1 12 -8 0 -9 5 -16
11 -16 5 0 7 5 4 10 -3 6 1 10 9 10 9 0 15 -3 15 -7 -3 -21 2 -34 11 -28 6 4
8 15 5 26 -5 14 -2 17 8 13 15 -5 16 15 8 167 -1 31 -22 61 -36 51z m13 -60
c6 -18 -15 -14 -22 4 -4 10 -1 14 6 12 6 -2 14 -10 16 -16z"/>
<path d="M6990 6479 c0 -5 5 -7 10 -4 6 3 10 8 10 11 0 2 -4 4 -10 4 -5 0 -10
-5 -10 -11z"/>
<path d="M8180 6467 c0 -18 39 -67 40 -49 0 6 -4 12 -10 12 -5 0 -9 10 -7 21
1 12 -4 24 -10 26 -7 3 -13 -2 -13 -10z"/>
<path d="M6857 6463 c-4 -3 -7 -11 -7 -17 0 -6 5 -5 12 2 6 6 9 14 7 17 -3 3
-9 2 -12 -2z"/>
<path d="M6677 6446 c-3 -8 0 -17 8 -19 15 -7 25 1 25 20 0 17 -26 17 -33 -1z"/>
<path d="M6727 6443 c-4 -3 4 -16 18 -29 14 -13 22 -29 19 -37 -5 -14 24 -33
34 -22 3 3 0 5 -6 5 -7 0 -12 6 -12 13 0 18 -45 78 -53 70z"/>
<path d="M8239 6448 c-5 -17 -4 -48 3 -48 4 0 8 11 8 25 0 20 -7 34 -11 23z"/>
<path d="M6645 6421 c3 -12 0 -21 -10 -25 -9 -3 -14 -2 -11 2 8 13 -11 35 -23
28 -7 -5 -8 -13 -2 -24 11 -21 77 -92 85 -92 14 0 -3 44 -19 50 -13 5 -15 9
-7 14 7 4 10 13 6 19 -3 7 2 3 10 -7 14 -17 16 -18 16 -3 0 16 -33 57 -46 57
-3 0 -3 -8 1 -19z"/>
<path d="M6016 6405 c4 -8 8 -15 10 -15 2 0 4 7 4 15 0 8 -4 15 -10 15 -5 0
-7 -7 -4 -15z"/>
<path d="M7105 6388 c-12 -35 -13 -58 -4 -58 5 0 9 -4 9 -10 0 -5 -7 -10 -17
-10 -9 0 -14 -3 -10 -6 3 -3 14 -3 25 0 24 8 35 43 16 50 -10 4 -11 12 -4 31
5 14 6 25 1 25 -5 0 -12 -10 -16 -22z"/>
<path d="M8236 6382 c-2 -4 -1 -14 3 -21 6 -10 10 -9 14 3 6 16 -8 32 -17 18z"/>
<path d="M6866 6365 c-9 -26 -7 -45 6 -45 6 0 8 3 5 7 -4 3 -2 12 5 20 8 9 8
17 1 24 -7 7 -12 5 -17 -6z"/>
<path d="M7126 6371 c-3 -5 3 -11 15 -14 16 -4 18 -3 8 9 -13 16 -16 17 -23 5z"/>
<path d="M6714 6339 c-3 -6 -3 -14 2 -18 12 -8 17 -34 5 -27 -5 3 -13 0 -19
-7 -13 -15 1 -43 16 -33 11 7 45 -40 38 -52 -3 -5 9 -6 27 -3 31 4 31 5 7 11
-30 7 -33 34 -5 37 11 2 14 0 8 -3 -7 -3 -13 -10 -13 -16 0 -14 52 0 70 19 8
9 10 13 3 9 -6 -3 -19 2 -29 11 -12 13 -19 14 -22 5 -2 -6 -15 -12 -28 -12
-15 0 -23 4 -19 10 4 6 11 7 17 4 6 -4 8 -1 6 7 -3 8 -11 13 -18 11 -8 -2 -10
3 -7 13 4 8 2 15 -4 15 -6 0 -9 7 -5 15 6 17 -19 21 -30 4z"/>
<path d="M6228 6320 c-7 -24 -3 -38 8 -28 3 4 4 17 2 30 l-3 23 -7 -25z"/>
<path d="M6193 6263 c-16 -6 -17 -33 -2 -33 5 0 7 -4 4 -10 -3 -5 -2 -10 4
-10 5 0 13 4 16 10 4 6 13 5 25 -2 16 -10 23 -9 39 9 l20 21 -30 12 c-16 7
-32 10 -36 6 -3 -3 -1 -6 5 -6 7 0 12 -4 12 -10 0 -5 -10 -8 -22 -6 -13 2 -22
9 -20 15 1 6 1 11 0 10 -2 0 -9 -3 -15 -6z"/>
<path d="M7092 6241 c1 -17 7 -32 15 -35 18 -7 17 31 -1 50 -13 12 -15 10 -14
-15z"/>
<path d="M3301 6224 c0 -11 3 -14 6 -6 3 7 2 16 -1 19 -3 4 -6 -2 -5 -13z"/>
<path d="M7136 6232 c-3 -6 -1 -14 5 -17 15 -10 25 3 12 16 -7 7 -13 7 -17 1z"/>
<path d="M7170 6198 c0 -23 -16 -24 -24 -1 -10 25 -25 2 -19 -29 3 -16 10 -28
15 -28 6 0 7 7 4 16 -5 14 -4 15 8 5 8 -7 14 -18 12 -24 -1 -7 -1 -9 1 -5 2 4
11 4 19 1 11 -4 14 5 14 39 0 33 -4 45 -15 45 -8 0 -15 -9 -15 -19z"/>
<path d="M3037 6186 c3 -13 0 -27 -6 -30 -6 -4 -11 0 -11 8 0 9 -5 16 -10 16
-6 0 -3 -14 7 -31 45 -79 52 -96 53 -128 0 -36 30 -134 43 -139 4 -2 7 -16 7
-31 0 -15 4 -31 9 -36 5 -6 14 -26 19 -45 10 -33 10 -33 11 -7 1 15 10 68 21
119 12 50 20 98 19 107 -1 9 0 18 1 21 8 21 4 50 -6 50 -8 0 -11 -6 -8 -14 9
-23 -44 -95 -69 -96 -5 0 -7 6 -4 13 2 6 -2 24 -10 40 -10 20 -11 37 -4 62 6
24 6 33 -1 29 -5 -4 -9 4 -8 17 3 36 1 49 -9 49 -5 0 -11 -9 -14 -20 -10 -38
-28 -22 -21 19 3 21 2 41 -3 44 -6 4 -8 -4 -6 -17z m58 -196 c3 -5 1 -10 -4
-10 -6 0 -11 5 -11 10 0 6 2 10 4 10 3 0 8 -4 11 -10z m46 -90 c6 0 7 -5 4
-10 -10 -16 -25 -1 -24 23 1 17 2 18 6 5 2 -10 9 -18 14 -18z"/>
<path d="M6760 6165 c0 -8 2 -15 4 -15 2 0 6 7 10 15 3 8 1 15 -4 15 -6 0 -10
-7 -10 -15z"/>
<path d="M3103 6141 c2 -35 3 -36 22 -17 12 12 11 16 -5 31 -19 17 -19 17 -17
-14z"/>
<path d="M3255 6150 c-10 -11 -16 -22 -14 -24 2 -2 12 7 22 20 22 29 17 32 -8
4z"/>
<path d="M6790 6142 c0 -13 -4 -20 -10 -17 -6 3 -7 -1 -4 -9 3 -9 10 -16 16
-16 5 0 7 4 4 9 -4 5 -1 11 6 13 8 3 8 9 0 24 -11 18 -11 18 -12 -4z"/>
<path d="M7170 6098 c0 -9 -8 -21 -17 -27 -10 -5 -15 -13 -11 -17 4 -4 14 -1
23 6 13 11 14 10 9 -4 -4 -11 -18 -16 -43 -16 -24 0 -32 -3 -22 -9 7 -5 11
-13 8 -18 -3 -5 3 -17 14 -26 20 -18 25 -12 9 13 -6 9 -5 17 3 22 20 13 30 9
17 -7 -10 -12 -10 -15 0 -15 8 0 11 -9 8 -25 -4 -20 -3 -23 8 -14 8 6 12 21
10 33 -2 11 0 32 4 46 4 14 1 36 -7 50 -9 18 -13 20 -13 8z"/>
<path d="M3156 6031 c-4 -5 -2 -12 3 -15 5 -4 12 -2 15 3 4 5 2 12 -3 15 -5 4
-12 2 -15 -3z"/>
<path d="M5780 6006 c0 -2 7 -7 16 -10 8 -3 12 -2 9 4 -6 10 -25 14 -25 6z"/>
<path d="M8285 5979 c-4 -6 -5 -12 -2 -15 2 -3 7 2 10 11 7 17 1 20 -8 4z"/>
<path d="M5725 5970 c-7 -12 2 -30 16 -30 12 0 12 27 0 35 -5 3 -12 1 -16 -5z"/>
<path d="M8090 5965 c7 -9 15 -13 17 -11 7 7 -7 26 -19 26 -6 0 -6 -6 2 -15z"/>
<path d="M8306 5962 c-8 -13 0 -47 10 -46 13 1 17 34 4 34 -6 0 -8 5 -5 10 3
6 4 10 1 10 -3 0 -7 -4 -10 -8z"/>
<path d="M7671 5944 c0 -11 3 -14 6 -6 3 7 2 16 -1 19 -3 4 -6 -2 -5 -13z"/>
<path d="M8230 5893 c0 -13 5 -23 10 -23 13 0 13 11 0 30 -8 12 -10 11 -10 -7z"/>
<path d="M8330 5894 c0 -8 5 -12 10 -9 6 3 10 10 10 16 0 5 -4 9 -10 9 -5 0
-10 -7 -10 -16z"/>
<path d="M7095 5840 c0 -16 3 -30 7 -30 10 0 20 38 13 50 -12 19 -20 10 -20
-20z"/>
<path d="M7703 5830 c9 -30 14 -37 24 -28 10 8 10 16 -4 39 -24 41 -32 36 -20
-11z"/>
<path d="M5865 5780 c3 -5 16 -15 28 -21 l22 -11 -22 21 c-23 22 -39 28 -28
11z"/>
<path d="M7075 5779 c-4 -6 -5 -12 -2 -15 2 -3 7 2 10 11 7 17 1 20 -8 4z"/>
<path d="M5887 5733 c-4 -3 -7 -11 -7 -17 0 -6 5 -5 12 2 6 6 9 14 7 17 -3 3
-9 2 -12 -2z"/>
<path d="M7730 5713 c0 -13 4 -23 9 -23 5 0 12 -24 15 -52 8 -55 22 -82 38
-72 6 4 5 -3 -1 -15 -10 -17 -9 -20 4 -15 17 7 20 50 5 90 -8 19 -7 30 1 40
10 12 9 13 -5 8 -13 -5 -17 -2 -14 12 2 12 -4 20 -17 22 -11 3 -23 9 -27 16
-5 6 -8 2 -8 -11z"/>
<path d="M5830 5700 c-12 -8 -11 -10 7 -10 12 0 25 5 28 10 8 13 -15 13 -35 0z"/>
<path d="M5831 5664 c0 -11 3 -14 6 -6 3 7 2 16 -1 19 -3 4 -6 -2 -5 -13z"/>
<path d="M8396 5672 c-2 -4 -1 -13 3 -20 4 -8 11 -5 19 8 10 16 10 20 -2 20
-8 0 -17 -4 -20 -8z"/>
<path d="M5797 5663 c-11 -10 -8 -41 3 -48 6 -4 10 5 8 24 -3 34 -2 34 -11 24z"/>
<path d="M5260 5615 c-20 -24 -6 -28 15 -5 10 11 13 20 8 20 -6 0 -16 -7 -23
-15z"/>
<path d="M8430 5585 c0 -17 16 -20 25 -5 5 8 11 7 21 -1 8 -7 14 -7 14 -1 0
11 -23 22 -46 22 -8 0 -14 -7 -14 -15z"/>
<path d="M8390 5576 c0 -2 7 -9 15 -16 9 -7 15 -8 15 -2 0 5 -7 12 -15 16 -8
3 -15 4 -15 2z"/>
<path d="M6124 5545 c-18 -14 -18 -14 4 -8 12 3 22 9 22 14 0 12 -3 11 -26 -6z"/>
<path d="M8435 5550 c-3 -5 1 -10 9 -10 9 0 16 5 16 10 0 6 -4 10 -9 10 -6 0
-13 -4 -16 -10z"/>
<path d="M5709 5503 c-1 -5 -1 -11 0 -15 0 -5 -4 -8 -10 -8 -7 0 -9 -10 -5
-25 5 -18 2 -27 -9 -31 -14 -6 -13 -8 2 -20 17 -13 17 -13 -2 -14 -14 0 -21
-7 -21 -20 0 -22 12 -27 19 -7 2 6 11 -4 20 -23 12 -27 16 -30 17 -15 1 11 1
25 0 30 -6 28 -7 81 -2 89 9 16 10 66 1 66 -5 0 -10 -3 -10 -7z"/>
<path d="M6094 5485 c-1 -16 2 -22 12 -18 17 6 18 17 2 31 -10 8 -13 4 -14
-13z"/>
<path d="M7801 5493 c0 -5 4 -17 8 -28 7 -17 8 -17 13 8 4 19 1 27 -8 27 -8 0
-14 -3 -13 -7z"/>
<path d="M7841 5443 c-1 -18 4 -33 10 -33 5 0 8 -4 5 -9 -3 -5 1 -14 9 -21 12
-10 15 -10 15 2 0 8 -3 18 -7 22 -5 4 -13 22 -20 39 l-11 32 -1 -32z"/>
<path d="M4849 5443 c0 -5 -2 -16 -4 -25 -2 -10 1 -18 6 -18 5 0 9 11 9 25 0
22 -9 37 -11 18z"/>
<path d="M4910 5440 c0 -6 7 -10 15 -10 8 0 15 2 15 4 0 2 -7 6 -15 10 -8 3
-15 1 -15 -4z"/>
<path d="M4885 5430 c3 -5 8 -10 11 -10 2 0 4 5 4 10 0 6 -5 10 -11 10 -5 0
-7 -4 -4 -10z"/>
<path d="M4808 5403 c-22 -5 -24 -20 -3 -20 8 0 16 6 19 14 3 7 4 12 3 12 -1
-1 -10 -3 -19 -6z"/>
<path d="M5944 5385 c-5 -16 -7 -43 -4 -60 l7 -30 7 36 c4 20 6 47 4 60 -3 23
-4 23 -14 -6z"/>
<path d="M6006 5397 c3 -10 9 -15 12 -12 3 3 0 11 -7 18 -10 9 -11 8 -5 -6z"/>
<path d="M6138 5405 c-13 -21 -13 -70 0 -67 17 3 15 -5 -9 -29 -17 -17 -19
-23 -8 -30 17 -10 29 -2 22 16 -3 11 -1 13 10 10 8 -4 16 0 19 7 8 23 3 58 -7
57 -5 0 -12 10 -15 23 -3 12 -9 18 -12 13z"/>
<path d="M4647 5386 c-3 -7 -1 -19 4 -27 7 -11 9 -11 9 0 0 7 6 11 15 7 20 -7
19 -4 -4 16 -15 12 -21 13 -24 4z"/>
<path d="M5977 5380 c3 -11 7 -20 9 -20 2 0 4 9 4 20 0 11 -4 20 -9 20 -5 0
-7 -9 -4 -20z"/>
<path d="M4738 5383 c7 -3 16 -2 19 1 4 3 -2 6 -13 5 -11 0 -14 -3 -6 -6z"/>
<path d="M8511 5381 c-7 -5 -10 -14 -7 -20 4 -6 2 -11 -3 -11 -6 0 -11 -7 -11
-15 0 -8 6 -12 14 -9 11 4 14 -1 12 -23 -2 -15 -5 -30 -6 -33 -1 -3 -3 -12 -4
-20 0 -8 -7 -14 -13 -12 -7 1 -13 -4 -13 -12 0 -9 7 -14 18 -12 9 2 26 0 37
-5 18 -7 18 -8 2 -8 -10 -1 -17 -6 -15 -13 8 -22 24 -19 36 7 11 23 9 26 -13
35 -14 5 -25 15 -25 22 0 25 12 58 20 53 4 -2 5 7 2 20 -2 14 -9 25 -14 25 -6
0 -8 9 -5 20 3 11 4 20 4 20 -1 0 -8 -4 -16 -9z"/>
<path d="M5918 5370 c-2 -6 -13 -12 -25 -12 -12 -1 -19 -7 -16 -15 6 -16 23
-17 23 -1 0 6 2 9 5 6 11 -11 -7 -37 -23 -32 -16 5 -16 5 0 -5 26 -17 44 -4
45 34 1 35 -2 44 -9 25z"/>
<path d="M7890 5360 c0 -5 5 -10 11 -10 5 0 7 5 4 10 -3 6 -8 10 -11 10 -2 0
-4 -4 -4 -10z"/>
<path d="M6590 5331 c0 -16 6 -31 13 -34 9 -3 12 5 9 29 -5 41 -22 45 -22 5z"/>
<path d="M4515 5320 c-3 -5 -3 -10 1 -10 4 0 -1 -7 -12 -16 -18 -15 -18 -15 0
-6 11 5 21 17 22 26 3 18 -2 21 -11 6z"/>
<path d="M5654 5305 c3 -8 1 -15 -3 -15 -5 0 -11 -7 -15 -15 -4 -12 -2 -13 14
-2 21 13 27 47 9 47 -6 0 -9 -7 -5 -15z"/>
<path d="M7908 5295 c2 -14 8 -25 13 -25 14 0 11 26 -5 39 -11 9 -12 6 -8 -14z"/>
<path d="M5775 5300 c3 -5 8 -10 11 -10 2 0 4 5 4 10 0 6 -5 10 -11 10 -5 0
-7 -4 -4 -10z"/>
<path d="M5801 5288 c-1 -30 13 -38 23 -12 3 8 2 12 -3 9 -5 -3 -12 3 -14 12
-3 11 -5 8 -6 -9z"/>
<path d="M5846 5283 c-4 -8 3 -13 19 -13 18 0 25 -6 28 -27 3 -18 4 -13 3 11
-1 33 -5 40 -23 41 -12 1 -24 -4 -27 -12z"/>
<path d="M5700 5288 c-2 -5 -3 -12 -4 -17 0 -5 -4 -12 -7 -15 -3 -4 -5 -29 -3
-56 1 -28 -1 -50 -6 -50 -10 0 -20 26 -16 43 1 6 1 9 -1 4 -3 -4 -9 -5 -14 -1
-5 3 -9 -13 -9 -35 0 -23 4 -41 8 -41 5 0 14 -30 21 -67 8 -38 16 -72 18 -76
8 -13 43 24 43 45 0 10 4 18 10 18 11 0 1 -104 -12 -108 -4 -2 -8 -11 -8 -20
0 -15 2 -15 10 -2 8 12 10 11 10 -7 0 -13 -5 -23 -11 -23 -18 0 -4 -23 15 -26
27 -4 32 -14 8 -14 -23 0 -21 -21 5 -51 7 -9 10 -18 7 -21 -3 -4 0 -17 7 -30
7 -12 13 -27 14 -32 0 -5 5 -11 11 -13 7 -2 10 7 8 24 -4 24 -3 25 5 8 5 -11
10 -15 10 -8 1 18 -10 43 -18 39 -4 -3 -7 4 -7 14 0 10 3 17 7 14 4 -2 10 3
13 12 9 23 8 24 -11 17 -11 -4 -14 -3 -9 6 5 8 19 10 37 6 19 -4 29 -3 29 5 0
10 3 10 15 0 15 -13 20 -8 27 30 3 18 -1 20 -42 20 -21 0 -28 -4 -24 -14 9
-23 -27 -27 -60 -6 -17 11 -29 20 -26 21 3 0 14 3 25 6 20 4 83 11 118 12 10
1 15 6 12 11 -4 6 -11 8 -16 4 -6 -3 -20 2 -31 13 -12 10 -18 12 -14 6 4 -7 2
-13 -3 -13 -6 0 -11 8 -11 18 0 14 -2 15 -9 2 -6 -8 -7 -18 -5 -22 3 -4 0 -8
-7 -8 -6 0 -9 8 -6 20 3 11 1 20 -5 20 -6 0 -7 7 -4 16 3 8 2 12 -4 9 -15 -9
-25 24 -11 38 8 8 11 6 11 -8 0 -12 3 -16 8 -9 4 6 17 16 28 22 22 12 39 62
21 62 -5 0 -7 9 -4 20 3 11 1 23 -4 26 -5 3 -9 -6 -9 -20 0 -34 -13 -33 -28 2
-6 15 -9 18 -7 7 3 -11 1 -26 -4 -33 -6 -11 -11 -10 -25 3 -15 15 -16 15 -16
-8 0 -16 -7 -26 -20 -30 -14 -4 -20 0 -20 11 0 10 -3 26 -5 37 -3 11 -1 27 5
35 9 13 11 13 20 0 7 -11 10 -3 10 30 0 25 -4 41 -8 35 -13 -19 -30 -15 -25 5
3 11 12 20 19 20 8 0 14 5 14 12 0 6 -3 8 -7 4 -4 -4 -13 8 -19 26 -7 18 -13
30 -14 26z m125 -240 c-2 -31 -22 -34 -22 -3 0 14 5 25 12 25 6 0 11 -10 10
-22z m-35 2 c0 -5 -2 -10 -4 -10 -3 0 -8 5 -11 10 -3 6 -1 10 4 10 6 0 11 -4
11 -10z m100 -190 c0 -5 -7 -10 -15 -10 -8 0 -15 5 -15 10 0 6 7 10 15 10 8 0
15 -4 15 -10z"/>
<path d="M6747 5219 c-36 -42 -57 -75 -54 -86 3 -14 7 -11 17 12 8 17 34 54
58 83 24 29 43 55 41 57 -2 2 -30 -28 -62 -66z"/>
<path d="M5765 5270 c-3 -5 -1 -10 4 -10 6 0 11 5 11 10 0 6 -2 10 -4 10 -3 0
-8 -4 -11 -10z"/>
<path d="M5640 5250 c-13 -8 -12 -10 3 -10 9 0 17 5 17 10 0 12 -1 12 -20 0z"/>
<path d="M5801 5234 c0 -11 3 -14 6 -6 3 7 2 16 -1 19 -3 4 -6 -2 -5 -13z"/>
<path d="M7930 5235 c0 -13 24 -50 39 -62 14 -11 14 -12 -3 -13 -15 0 -17 -3
-9 -11 6 -6 20 -9 32 -7 l21 3 -23 25 c-13 14 -22 31 -20 37 2 6 -5 17 -16 23
-12 6 -21 8 -21 5z"/>
<path d="M5796 5195 c-3 -8 -1 -15 4 -15 6 0 10 7 10 15 0 8 -2 15 -4 15 -2 0
-6 -7 -10 -15z"/>
<path d="M8577 5170 c3 -11 7 -20 9 -20 2 0 4 9 4 20 0 11 -4 20 -9 20 -5 0
-7 -9 -4 -20z"/>
<path d="M8506 5143 c2 -11 7 -29 11 -39 4 -12 3 -15 -5 -10 -7 4 -12 2 -12
-3 0 -6 5 -11 11 -11 5 0 7 -6 3 -12 -5 -9 -2 -9 9 1 13 10 20 11 30 2 8 -6
18 -7 22 -3 5 4 5 1 1 -5 -4 -7 -2 -13 4 -13 7 0 9 7 6 16 -3 9 -6 20 -6 25 0
5 -9 9 -19 9 -12 0 -21 9 -25 25 -4 14 -11 23 -16 20 -4 -3 -10 0 -13 7 -2 7
-3 3 -1 -9z"/>
<path d="M8547 5140 c5 -20 15 -25 26 -14 6 6 -16 34 -26 34 -3 0 -3 -9 0 -20z"/>
<path d="M5913 5138 c1 -7 -6 -12 -15 -10 -10 2 -18 -1 -19 -5 0 -4 -2 -16 -4
-25 -2 -10 3 -18 11 -18 8 0 14 7 14 15 0 8 6 12 14 9 18 -7 28 9 20 30 -7 19
-25 22 -21 4z"/>
<path d="M5955 5109 c-4 -6 -5 -12 -2 -15 2 -3 7 2 10 11 7 17 1 20 -8 4z"/>
<path d="M6660 5106 c-6 -9 -10 -21 -8 -28 3 -8 9 -4 17 10 15 28 9 39 -9 18z"/>
<path d="M7987 5101 c3 -11 14 -28 24 -37 19 -17 20 -17 13 1 -6 14 -4 16 7
11 8 -4 3 1 -10 12 -18 15 -21 21 -10 25 9 3 6 6 -8 6 -16 1 -20 -3 -16 -18z"/>
<path d="M8042 5047 c-9 -10 -8 -18 4 -33 8 -10 12 -12 8 -4 -4 9 -3 12 2 7 5
-5 9 -14 9 -20 0 -7 5 -14 10 -17 18 -9 16 34 -3 58 -15 20 -20 21 -30 9z"/>
<path d="M8532 5036 c-9 -19 -8 -25 4 -30 15 -6 19 -42 5 -50 -5 -3 -7 -15 -4
-27 4 -15 2 -20 -10 -17 -9 2 -16 -1 -15 -7 0 -5 3 -9 8 -8 4 1 5 -9 2 -22 -3
-18 0 -25 12 -25 11 0 16 -9 17 -27 1 -16 3 -21 6 -12 2 10 13 19 24 22 22 6
23 3 8 -25 -9 -16 -8 -19 2 -13 8 5 10 4 5 -3 -4 -7 -15 -12 -25 -12 -14 0
-17 -7 -16 -32 2 -18 -2 -41 -7 -50 -9 -19 -1 -23 21 -9 10 6 11 13 2 29 -12
22 -9 27 34 56 18 13 18 18 7 48 -6 19 -12 49 -12 66 0 22 -5 32 -15 32 -8 0
-15 5 -15 11 0 5 5 7 10 4 6 -4 10 5 10 20 0 20 -4 26 -15 21 -13 -4 -13 -2
-5 14 7 13 7 27 -2 44 -14 32 -22 33 -36 2z m18 -166 c0 -5 -2 -10 -4 -10 -3
0 -8 5 -11 10 -3 6 -1 10 4 10 6 0 11 -4 11 -10z"/>
<path d="M5956 5041 c-4 -5 3 -7 14 -4 23 6 26 13 6 13 -8 0 -17 -4 -20 -9z"/>
<path d="M6632 5020 c-14 -39 1 -48 15 -9 6 16 8 31 3 34 -4 3 -13 -8 -18 -25z"/>
<path d="M3405 4990 c4 -6 11 -8 16 -5 14 9 11 15 -7 15 -8 0 -12 -5 -9 -10z"/>
<path d="M6550 4988 c0 -11 28 -10 35 1 3 6 -4 9 -15 8 -11 -1 -20 -5 -20 -9z"/>
<path d="M5820 4970 c0 -5 5 -10 11 -10 5 0 7 5 4 10 -3 6 -8 10 -11 10 -2 0
-4 -4 -4 -10z"/>
<path d="M5715 4960 c3 -5 8 -10 11 -10 2 0 4 5 4 10 0 6 -5 10 -11 10 -5 0
-7 -4 -4 -10z"/>
<path d="M6621 4954 c0 -11 3 -14 6 -6 3 7 2 16 -1 19 -3 4 -6 -2 -5 -13z"/>
<path d="M8110 4952 c0 -14 38 -54 43 -45 8 14 -12 53 -28 53 -8 0 -15 -4 -15
-8z"/>
<path d="M8361 4914 c0 -11 3 -14 6 -6 3 7 2 16 -1 19 -3 4 -6 -2 -5 -13z"/>
<path d="M8430 4910 c0 -11 4 -20 9 -20 5 0 7 9 4 20 -3 11 -7 20 -9 20 -2 0
-4 -9 -4 -20z"/>
<path d="M6567 4913 c-3 -5 6 -9 19 -9 13 -1 21 2 18 7 -6 11 -31 12 -37 2z"/>
<path d="M8181 4864 c0 -11 3 -14 6 -6 3 7 2 16 -1 19 -3 4 -6 -2 -5 -13z"/>
<path d="M6365 4861 c-3 -5 -1 -12 5 -16 5 -3 10 1 10 9 0 18 -6 21 -15 7z"/>
<path d="M8201 4858 c-1 -9 -4 -23 -7 -32 -7 -17 41 -70 55 -61 10 5 55 -48
86 -102 10 -18 23 -29 28 -26 6 3 7 1 3 -6 -4 -7 3 -26 16 -44 13 -18 30 -48
37 -67 8 -19 21 -42 30 -50 9 -8 23 -31 32 -50 17 -35 17 -34 14 65 -3 111
-13 175 -26 175 -5 0 -9 -5 -9 -11 0 -8 -4 -8 -15 1 -12 10 -14 7 -10 -19 2
-17 7 -36 11 -43 4 -7 -2 -4 -14 6 -12 11 -22 27 -22 37 0 10 -7 24 -15 33
-14 13 -13 16 5 26 11 6 18 15 15 19 -2 5 2 14 10 21 8 7 15 18 15 24 0 6 -7
3 -14 -7 -16 -21 -21 -16 -31 31 -3 17 -11 32 -16 32 -6 0 -7 -5 -4 -10 4 -6
1 -18 -6 -26 -9 -11 -9 -18 -1 -26 13 -13 16 -38 4 -38 -11 0 -34 58 -34 86 0
17 -6 24 -20 24 -12 0 -17 -5 -13 -12 4 -7 -1 -4 -11 7 -16 20 -16 20 -11 -3
4 -19 3 -21 -8 -12 -10 8 -19 8 -34 0 -14 -7 -21 -7 -21 0 0 5 7 10 15 10 8 0
15 4 15 10 0 5 -6 7 -13 4 -8 -3 -18 7 -24 23 -7 17 -11 21 -12 11z m114 -118
c3 -5 1 -10 -4 -10 -6 0 -11 5 -11 10 0 6 2 10 4 10 3 0 8 -4 11 -10z m165
-181 c0 -10 -2 -19 -4 -19 -2 0 -13 -3 -23 -7 -17 -6 -17 -6 0 15 11 12 16 26
11 33 -4 8 -3 10 4 5 7 -4 12 -16 12 -27z m3 -41 c-4 -7 -7 -22 -5 -33 1 -17
0 -16 -8 3 -10 25 -6 42 11 42 6 0 7 -6 2 -12z"/>
<path d="M6540 4835 c0 -8 5 -15 10 -15 6 0 10 7 10 15 0 8 -4 15 -10 15 -5 0
-10 -7 -10 -15z"/>
<path d="M6150 4826 c0 -3 9 -10 20 -16 11 -6 20 -8 20 -6 0 3 -9 10 -20 16
-11 6 -20 8 -20 6z"/>
<path d="M5832 4793 c-16 -16 -15 -20 5 -27 10 -4 14 -4 11 0 -11 10 20 36 33
28 7 -4 9 -3 5 4 -8 14 -39 11 -54 -5z"/>
<path d="M6540 4800 c0 -5 5 -10 11 -10 5 0 7 5 4 10 -3 6 -8 10 -11 10 -2 0
-4 -4 -4 -10z"/>
<path d="M6540 4762 c0 -10 -6 -24 -12 -31 -11 -10 -10 -11 5 -6 9 4 17 11 17
15 0 5 3 15 6 24 3 9 1 16 -5 16 -6 0 -11 -8 -11 -18z"/>
<path d="M6566 4765 c-3 -8 -1 -15 4 -15 6 0 10 7 10 15 0 8 -2 15 -4 15 -2 0
-6 -7 -10 -15z"/>
<path d="M6207 4747 c3 -5 -1 -14 -8 -19 -11 -8 -11 -11 -1 -15 10 -4 10 -8 1
-19 -9 -11 -9 -18 -1 -26 15 -15 16 -38 2 -38 -6 0 -10 7 -8 16 2 10 -3 19
-10 21 -9 4 -10 -1 -2 -21 8 -21 6 -27 -10 -36 -14 -7 -20 -7 -20 0 0 5 5 10
11 10 8 0 8 5 -1 15 -10 12 -10 18 1 31 10 13 10 17 -2 25 -18 11 -21 11 -40
-4 -10 -7 -18 -31 -20 -59 -3 -34 -1 -44 8 -37 7 6 13 6 17 1 3 -6 -1 -13 -10
-16 -26 -10 -35 -7 -32 12 2 13 -3 16 -22 15 l-25 -3 25 15 25 14 -35 1 c-30
1 -32 3 -14 10 12 4 24 16 28 26 6 17 5 17 -14 -1 -18 -16 -20 -16 -20 -2 0
10 -4 17 -10 17 -5 0 -10 -7 -10 -15 0 -8 -6 -12 -14 -9 -9 3 -13 -1 -13 -12
1 -9 -4 -19 -10 -21 -12 -4 -19 24 -14 51 1 5 -1 16 -4 24 -4 11 -8 12 -20 2
-19 -16 -20 -50 -1 -50 19 0 14 -41 -8 -64 -18 -18 -18 -19 -1 -33 11 -7 13
-13 7 -13 -7 0 -12 -8 -12 -17 0 -21 -9 -13 -13 13 -4 32 -22 27 -27 -8 l-6
-33 -7 33 c-4 20 -12 32 -23 32 -15 0 -177 -161 -169 -168 8 -8 165 22 228 44
62 22 71 22 68 2 0 -5 4 -8 9 -8 6 0 10 7 10 15 0 8 4 15 8 15 19 0 54 40 48
55 -4 12 -2 14 11 7 12 -7 22 -3 39 15 25 27 60 37 70 21 4 -7 2 -8 -4 -4 -7
4 -12 2 -12 -4 0 -12 53 -2 58 12 2 4 8 8 13 8 6 0 7 -4 4 -10 -9 -15 7 -12
29 5 11 8 27 15 37 15 9 0 22 7 30 16 10 13 10 17 -2 25 -12 7 -11 9 3 9 9 0
19 -6 22 -12 5 -10 7 -10 12 0 3 6 14 12 24 12 10 0 21 4 24 8 2 4 -7 8 -22 7
-17 0 -27 5 -27 15 -1 8 -6 14 -13 13 -7 -2 -12 5 -13 15 0 9 -5 2 -10 -15 -5
-18 -16 -33 -24 -33 -11 0 -12 5 -5 25 9 24 8 25 -28 25 -33 1 -35 2 -19 14
16 12 16 15 3 29 -8 8 -13 17 -9 20 3 3 -4 5 -15 4 -11 0 -18 -5 -15 -10z
m-264 -62 c-3 -9 -8 -14 -10 -11 -3 3 -2 9 2 15 9 16 15 13 8 -4z m313 -30 c1
-8 -2 -15 -6 -15 -5 0 -8 9 -7 20 1 21 10 18 13 -5z m87 0 c-3 -9 -8 -14 -10
-11 -3 3 -2 9 2 15 9 16 15 13 8 -4z m-208 -35 c-3 -5 -11 -10 -16 -10 -6 0
-7 5 -4 10 3 6 11 10 16 10 6 0 7 -4 4 -10z m165 -6 c0 -2 -12 -4 -27 -4 -21
0 -24 3 -14 9 13 8 41 5 41 -5z m-107 -34 c6 -24 6 -24 -28 -6 -27 14 -25 17
16 25 4 0 9 -8 12 -19z m-127 -27 c-11 -11 -19 6 -11 24 8 17 8 17 12 0 3 -10
2 -21 -1 -24z m-86 -10 c0 -5 -5 -15 -10 -23 -7 -12 -9 -10 -7 8 1 19 17 33
17 15z m37 -45 c-3 -8 -6 -5 -6 6 -1 11 2 17 5 13 3 -3 4 -12 1 -19z"/>
<path d="M8590 4728 c0 -15 5 -30 12 -34 7 -4 8 -3 4 4 -4 7 -1 12 9 12 9 0
15 5 13 11 -2 6 -7 10 -12 9 -5 -1 -13 4 -17 12 -6 9 -9 5 -9 -14z"/>
<path d="M6440 4715 c0 -8 -6 -12 -14 -9 -7 3 -20 -6 -28 -18 -15 -22 -14 -24
3 -24 11 0 19 6 19 14 0 7 6 12 13 10 6 -2 22 7 35 20 l22 22 -25 0 c-15 0
-25 -6 -25 -15z"/>
<path d="M6467 4685 c-4 -8 -14 -15 -22 -15 -9 0 -13 -5 -9 -11 4 -7 13 -4 27
10 12 11 18 23 15 26 -3 3 -8 -1 -11 -10z"/>
<path d="M5771 4638 c-1 -46 2 -58 14 -58 9 0 18 7 21 15 4 8 10 12 15 9 14
-8 11 30 -3 45 -10 11 -10 13 0 7 7 -4 12 -1 12 8 0 18 -16 21 -25 6 -10 -15
-23 -12 -28 8 -3 9 -5 -9 -6 -40z m29 -3 c0 -8 -4 -15 -10 -15 -5 0 -7 7 -4
15 4 8 8 15 10 15 2 0 4 -7 4 -15z"/>
<path d="M8566 4664 c-10 -25 -7 -34 9 -34 8 0 15 -4 15 -10 0 -5 8 -7 18 -4
13 5 14 4 3 -4 -8 -6 -20 -8 -28 -5 -17 7 -17 -5 1 -22 7 -8 17 -11 21 -7 4 4
4 -3 1 -15 -5 -14 -3 -23 3 -23 6 0 8 -7 5 -15 -4 -8 -1 -15 5 -15 7 0 11 24
11 66 0 41 -4 63 -10 59 -5 -3 -10 1 -10 10 0 9 5 13 10 10 6 -3 10 -1 10 4 0
17 -27 13 -34 -4 -8 -22 -25 -18 -19 5 6 24 -2 27 -11 4z"/>
<path d="M5840 4663 c0 -4 5 -15 10 -23 8 -13 10 -13 10 2 0 9 -4 20 -10 23
-5 3 -10 3 -10 -2z"/>
<path d="M8567 4573 c-4 -3 -7 -11 -7 -17 0 -6 5 -5 12 2 6 6 9 14 7 17 -3 3
-9 2 -12 -2z"/>
<path d="M8600 4484 c0 -8 5 -12 10 -9 6 3 10 10 10 16 0 5 -4 9 -10 9 -5 0
-10 -7 -10 -16z"/>
<path d="M8580 4449 c0 -5 5 -7 10 -4 6 3 10 8 10 11 0 2 -4 4 -10 4 -5 0 -10
-5 -10 -11z"/>
<path d="M8558 4423 c-10 -2 -18 -14 -19 -26 0 -12 -3 -33 -5 -47 -6 -34 9
-14 29 38 9 23 16 41 14 41 -1 -1 -10 -3 -19 -6z"/>
</g>
</svg>
